PathFileType	4	(X/Y/Z)	OpenSim_Sub01_EMGStiffKnee_Gyro.trc
DataRate	CameraRate	NumFrames	NumMarkers	Units	OrigDataRate	OrigDataStartFrame	OrigNumFrames
100	100	30	8	m	100	4872	5567
Frame#	Time	torso_imu_offset_imu	pelvis_imu_offset_imu	tibia_r_imu_offset_imu	femur_r_imu_offset_imu	tibia_l_imu_offset_imu	femur_l_imu_offset_imu	toes_r_imu_offset_imu	toes_l_imu_offset_imu
				X1	Y1	Z1	X2	Y2	Z2	X3	Y3	Z3	X4	Y4	Z4	X5	Y5	Z5	X6	Y6	Z6	X7	Y7	Z7	X8		Y8	Z8	

4872	48.71000000	0.52674575	-0.01805760	0.24430094	0.54875144	0.14929367	-0.19760216	0.63214385	-0.35774162	-0.57485207	0.05547000	0.01220053	-0.86575542	0.49088138	0.14188537	-1.09642294	0.18918551	-0.11043442	-0.15723285	0.00775530	-0.14005801	-0.02548097	-0.17238232	1.91575132	-0.65142906
4873	48.72000000	0.54960397	-0.04374754	0.21850419	0.49815041	0.12441995	-0.27691369	0.36988852	-0.32044375	-0.59204829	0.04282307	0.04333221	-0.92607947	0.68846595	-0.05273598	-1.92169377	0.21441747	-0.19352927	-0.02067211	-0.06103267	-0.18008493	0.02989420	-0.10374185	2.59493246	-0.60377902
4874	48.73000000	0.56843646	-0.06408652	0.19020242	0.48002149	0.07883410	-0.35606829	0.06613596	-0.27095563	-0.58717517	-0.15230236	0.00627129	-1.00950676	0.55799323	-0.32961405	-2.29050248	0.31619809	-0.15361594	0.06510191	-0.11819189	-0.21710305	0.07064772	0.06477335	3.10469309	-0.36253569
4875	48.74000000	0.58633766	-0.08069448	0.15987334	0.48983379	0.03013965	-0.42487852	-0.20591127	-0.24030165	-0.57269590	-0.41606172	-0.05373919	-1.07952778	0.39886955	-0.56160446	-2.43029949	0.37653543	-0.04740788	0.10211261	-0.13297442	-0.23295610	0.08320959	0.28629518	3.45622984	-0.03007780
4876	48.75000000	0.60593126	-0.09580394	0.12946389	0.52252593	-0.00809780	-0.47653422	-0.38405128	-0.24778737	-0.55879931	-0.64792440	-0.09892167	-1.10765115	0.42927207	-0.66528659	-2.52220490	0.31078399	0.07630650	0.09267807	-0.09150105	-0.21656096	0.06137651	0.51397190	3.65155809	0.29883193
4877	48.76000000	0.62838366	-0.11325098	0.10539840	0.57213585	-0.03503561	-0.51412849	-0.44071863	-0.27676566	-0.54728294	-0.79720242	-0.11771171	-1.08830542	0.60206430	-0.69368799	-2.58581677	0.13970936	0.19746166	0.03838936	-0.03098225	-0.17835510	0.02102809	0.70617698	3.66606771	0.55751713
4878	48.77000000	0.65448321	-0.13701517	0.09455549	0.63224062	-0.05196898	-0.54229941	-0.35840688	-0.30447740	-0.53838831	-0.82533040	-0.10439640	-1.02166069	0.82340871	-0.72099561	-2.61069589	-0.09495543	0.30192088	-0.05958794	0.00432424	-0.13250847	-0.01859488	0.82466608	3.47427085	0.68733740
4879	48.78000000	0.68339307	-0.16878742	0.09822450	0.69201287	-0.05698434	-0.56140514	-0.17430309	-0.31616963	-0.53228735	-0.73724759	-0.06830245	-0.93039069	1.03465120	-0.76053050	-2.58379431	-0.32935292	0.38480045	-0.20444345	0.00604902	-0.08950510	-0.04904887	0.86734756	3.11120386	0.67219587
4880	48.79000000	0.71302523	-0.20849514	0.11339202	0.73723725	-0.04569949	-0.56850920	0.03231475	-0.30325688	-0.52909762	-0.57137797	-0.03032952	-0.85448205	1.20421623	-0.77876611	-2.49006857	-0.48261277	0.44833884	-0.40270861	-0.00655534	-0.05699025	-0.07020203	0.85994621	2.65849010	0.52875507
4881	48.80000000	0.74116285	-0.25382996	0.13672574	0.75696646	-0.01557800	-0.56055617	0.19733262	-0.26300336	-0.52776945	-0.36010490	-0.00563670	-0.82044896	1.29360898	-0.75039995	-2.33118977	-0.49794275	0.49389326	-0.64663532	-0.02002150	-0.04084076	-0.08200373	0.81045448	2.19278517	0.28692549
4882	48.81000000	0.76530184	-0.29597481	0.16427475	0.75022290	0.03024322	-0.53438911	0.30491229	-0.20958382	-0.52378920	-0.11530314	0.00855924	-0.81345011	1.24170487	-0.67814752	-2.15864767	-0.39139726	0.51965784	-0.88578959	-0.04018385	-0.04189558	-0.08400946	0.67204830	1.77242242	0.01347892
4883	48.82000000	0.78281320	-0.32537035	0.19204466	0.71783111	0.08714143	-0.48732852	0.34830958	-0.15982409	-0.51255644	0.15338939	0.01834996	-0.81165948	0.98898072	-0.57023715	-2.03034399	-0.19299730	0.52399234	-1.06476667	-0.07544841	-0.05981092	-0.07587948	0.39615810	1.45095554	-0.22199016
4884	48.83000000	0.78999378	-0.33935550	0.21710243	0.66000054	0.14395664	-0.42411952	0.32330316	-0.12343645	-0.49775541	0.41306896	0.02969523	-0.80314605	0.56247875	-0.43987620	-1.96230343	0.05977914	0.51648549	-1.17187165	-0.11930319	-0.09048254	-0.05993130	0.05974253	1.26110742	-0.40962538
4885	48.84000000	0.78231423	-0.34057952	0.23733222	0.57647035	0.18450169	-0.35522134	0.22762201	-0.10465639	-0.48944408	0.61293279	0.04844994	-0.78359902	0.05587747	-0.30410557	-1.93831374	0.32371680	0.51536611	-1.22905318	-0.15375616	-0.12691188	-0.04052849	-0.16366354	1.21954451	-0.58554328
4886	48.85000000	0.75616241	-0.33177672	0.25096086	0.47119285	0.19947201	-0.28945796	0.06994645	-0.10654478	-0.49278541	0.71636871	0.07605943	-0.75293604	-0.43802988	-0.18101794	-1.94149342	0.55966270	0.53386695	-1.25331254	-0.16555278	-0.16271862	-0.02268195	-0.17180833	1.31478944	-0.76895559
4887	48.86000000	0.71071483	-0.31552829	0.25717081	0.36067548	0.20039817	-0.23035755	-0.10865133	-0.12909095	-0.49791008	0.73029896	0.10087431	-0.72305664	-0.83417384	-0.09153821	-1.95543638	0.74097300	0.56971494	-1.24437868	-0.15639331	-0.19358064	-0.01316977	-0.08163416	1.45296511	-0.92532890
4888	48.87000000	0.64598304	-0.29428608	0.25536145	0.26301425	0.20188456	-0.18041239	-0.26213448	-0.17090205	-0.49310396	0.66972549	0.10937721	-0.70726383	-1.05399558	-0.05510245	-1.96479590	0.84375744	0.61701030	-1.20003536	-0.13096925	-0.21577062	-0.01861518	-0.04272343	1.53063396	-1.01304975
4889	48.88000000	0.56675928	-0.26898971	0.24553439	0.18534203	0.20688944	-0.14126552	-0.35979022	-0.21840111	-0.48063482	0.55011201	0.09632579	-0.70671345	-1.09498697	-0.06103442	-1.96876169	0.85072136	0.65848310	-1.13674294	-0.09735964	-0.22876772	-0.03843546	-0.08666771	1.52925814	-1.03324839
4890	48.89000000	0.48151565	-0.23941546	0.22815537	0.12635154	0.20940677	-0.11390579	-0.38271217	-0.24863920	-0.47352991	0.38727790	0.06285065	-0.71321136	-1.01318572	-0.07548638	-1.97771156	0.74965406	0.66811968	-1.08533094	-0.06624962	-0.23451990	-0.06650073	-0.15424497	1.49564213	-1.01994842
4891	48.90000000	0.39842071	-0.20630372	0.20450449	0.08348170	0.20436051	-0.09873245	-0.32543271	-0.24814669	-0.48003111	0.19726107	0.01400157	-0.71958728	-0.86857366	-0.07596594	-1.99960443	0.53726798	0.63166014	-1.06630053	-0.04630820	-0.23565102	-0.09645222	-0.20504605	1.46012586	-0.99366141
4892	48.91000000	0.32445997	-0.17334849	0.17824599	0.05109121	0.19012317	-0.09444275	-0.22151408	-0.23233747	-0.49333846	-0.00327846	-0.03401334	-0.72242775	-0.72837734	-0.07549336	-2.03435648	0.23640141	0.57043831	-1.06836466	-0.04001432	-0.23660458	-0.12167514	-0.26150417	1.39913176	-0.93223480
4893	48.92000000	0.26606884	-0.14476328	0.15331785	0.02296358	0.16597473	-0.09928871	-0.11132848	-0.22101498	-0.50446176	-0.19660943	-0.06395195	-0.71893439	-0.65629785	-0.09227558	-2.08003664	-0.12454171	0.51147338	-1.07428755	-0.04837901	-0.24195815	-0.13603126	-0.35156344	1.28441807	-0.80933047
4894	48.93000000	0.22472506	-0.12436406	0.13115745	-0.00720206	0.13523297	-0.10956810	-0.02917192	-0.21975958	-0.51324951	-0.35069358	-0.07396906	-0.70511847	-0.64324301	-0.12388419	-2.12932356	-0.50615390	0.46838719	-1.06576258	-0.06757352	-0.25326108	-0.14122104	-0.41177862	1.16711160	-0.65400894
4895	48.94000000	0.19808944	-0.11565889	0.11127739	-0.04576930	0.10432340	-0.12007552	-0.00465151	-0.22320277	-0.52635312	-0.42249373	-0.07407054	-0.67607790	-0.62409914	-0.15201202	-2.17074543	-0.86056576	0.44448676	-1.02366684	-0.09004466	-0.26973164	-0.14497730	-0.30841535	1.15939571	-0.53795418
4896	48.95000000	0.18307816	-0.11961446	0.09327996	-0.09604310	0.07895652	-0.12712963	-0.05207665	-0.22575779	-0.54897667	-0.38816790	-0.07254397	-0.63081401	-0.55214389	-0.16640372	-2.19137118	-1.15105886	0.44081976	-0.93962293	-0.10989800	-0.29056994	-0.15257797	0.01104366	1.31996807	-0.50407132
4897	48.96000000	0.17468665	-0.12966957	0.07718117	-0.15223520	0.06248066	-0.13169254	-0.14065916	-0.22202627	-0.58150383	-0.28175178	-0.07166525	-0.57999664	-0.43958526	-0.18194295	-2.17425107	-1.37469586	0.45250870	-0.83724512	-0.12645251	-0.31510030	-0.16154546	0.35241294	1.54393085	-0.50649340
4898	48.97000000	0.16769657	-0.13807565	0.06299198	-0.20706267	0.05731099	-0.13551352	-0.23196642	-0.20726046	-0.62321001	-0.14694304	-0.07283537	-0.53584495	-0.30937765	-0.21624279	-2.10358233	-1.53328614	0.47324514	-0.74530956	-0.14000844	-0.34277235	-0.16822006	0.49056952	1.70192836	-0.48626215
4899	48.98000000	0.15900524	-0.14014363	0.04950293	-0.25603391	0.05843446	-0.13927373	-0.29794136	-0.18592661	-0.67012370	-0.01189698	-0.08099447	-0.50148064	-0.18224757	-0.25821152	-1.99184234	-1.60621147	0.49170057	-0.68132724	-0.15112642	-0.37456769	-0.17270888	0.41995742	1.75121667	-0.43411538
4900	48.99000000	0.14713871	-0.13354125	0.03456568	-0.29680673	0.05512351	-0.14283227	-0.31852200	-0.16958017	-0.71577505	0.10719794	-0.10380163	-0.47302276	-0.07720408	-0.27467211	-1.87327026	-1.55560597	0.49268737	-0.65413329	-0.16056733	-0.41264621	-0.17801712	0.30400486	1.71572250	-0.37903922
4901	49	0.13076318	-0.11824388	0.01679218	-0.32798442	0.04145693	-0.14620923	-0.28443301	-0.16490214	-0.75513972	0.19743675	-0.14171388	-0.44721428	-0.01004845	-0.24739912	-1.77164497	-1.36601955	0.46807383	-0.66715216	-0.16889467	-0.45789799	-0.18505511	0.25881925	1.61681249	-0.34057744
